<svg xmlns="http://www.w3.org/2000/svg" viewBox="0 0 1200 560" width="1200" height="560" role="img" aria-label="VPC 퍼블릭 프라이빗 서브넷 구성">
<title>VPC 퍼블릭 프라이빗 서브넷 구성</title>
<defs>
  <marker id="arw" viewBox="0 0 10 10" refX="8.5" refY="5" markerWidth="7" markerHeight="7" orient="auto-start-reverse"><path d="M0 0 L10 5 L0 10 z" fill="#7c8496"/></marker>
  <marker id="arwA" viewBox="0 0 10 10" refX="8.5" refY="5" markerWidth="7" markerHeight="7" orient="auto-start-reverse"><path d="M0 0 L10 5 L0 10 z" fill="#8b8ff8"/></marker>
</defs>
<rect x="0.5" y="0.5" width="1199" height="559" rx="20" fill="#0f1420" stroke="#222a3b"/>
<g font-family="'Pretendard Variable', Pretendard, 'Apple SD Gothic Neo', 'Malgun Gothic', 'Noto Sans KR', system-ui, sans-serif"><text x="48" y="62" font-size="24" font-weight="700" fill="#eceef4" text-anchor="start">대표적인 VPC 구성</text><text x="48" y="92" font-size="15" font-weight="400" fill="#a3a9b8" text-anchor="start">요청을 받는 것만 퍼블릭 서브넷에, 애플리케이션과 DB는 프라이빗 서브넷에</text><rect x="500" y="116" width="200" height="52" rx="14" fill="#151b29" stroke="#2a3347" stroke-width="1.2"/><text x="600" y="147" font-size="15" font-weight="650" fill="#eceef4" text-anchor="middle">인터넷 게이트웨이</text><rect x="48" y="190" width="1104" height="340" rx="18" fill="rgba(255,255,255,0.01)" stroke="#2a3347" stroke-dasharray="6 5" stroke-width="1.2"/><text x="70" y="216" font-size="13" font-weight="400" fill="#7c8496" text-anchor="start" font-family="'Geist Mono', ui-monospace, Consolas, Menlo, monospace">VPC</text><text x="80" y="246" font-size="13" font-weight="400" fill="#7c8496" text-anchor="start" font-family="'Geist Mono', ui-monospace, Consolas, Menlo, monospace">AZ-a</text><rect x="80" y="256" width="500" height="76" rx="14" fill="rgba(99,102,241,0.05)" stroke="rgba(99,102,241,0.35)" stroke-width="1.2"/><text x="94" y="276" font-size="12" font-weight="400" fill="#8b8ff8" text-anchor="start">퍼블릭 서브넷</text><rect x="80" y="344" width="500" height="76" rx="14" fill="rgba(255,255,255,0.02)" stroke="#2a3347" stroke-width="1.2"/><text x="94" y="364" font-size="12" font-weight="400" fill="#7c8496" text-anchor="start">프라이빗 서브넷 · 앱</text><rect x="80" y="432" width="500" height="76" rx="14" fill="rgba(255,255,255,0.02)" stroke="#2a3347" stroke-width="1.2"/><text x="94" y="452" font-size="12" font-weight="400" fill="#7c8496" text-anchor="start">프라이빗 서브넷 · DB</text><rect x="100" y="284" width="190" height="40" rx="14" fill="#151b29" stroke="#2a3347" stroke-width="1.2"/><text x="195" y="309" font-size="13.5" font-weight="650" fill="#eceef4" text-anchor="middle">NAT Gateway</text><rect x="230" y="372" width="200" height="40" rx="14" fill="#151b29" stroke="#2a3347" stroke-width="1.2"/><text x="330" y="397" font-size="13.5" font-weight="650" fill="#eceef4" text-anchor="middle">App (ECS Task)</text><rect x="230" y="460" width="200" height="40" rx="14" fill="#151b29" stroke="#6366f1" stroke-width="1.2"/><text x="330" y="485" font-size="13.5" font-weight="650" fill="#eceef4" text-anchor="middle">RDS Primary</text><text x="620" y="246" font-size="13" font-weight="400" fill="#7c8496" text-anchor="start" font-family="'Geist Mono', ui-monospace, Consolas, Menlo, monospace">AZ-c</text><rect x="620" y="256" width="500" height="76" rx="14" fill="rgba(99,102,241,0.05)" stroke="rgba(99,102,241,0.35)" stroke-width="1.2"/><text x="634" y="276" font-size="12" font-weight="400" fill="#8b8ff8" text-anchor="start">퍼블릭 서브넷</text><rect x="620" y="344" width="500" height="76" rx="14" fill="rgba(255,255,255,0.02)" stroke="#2a3347" stroke-width="1.2"/><text x="634" y="364" font-size="12" font-weight="400" fill="#7c8496" text-anchor="start">프라이빗 서브넷 · 앱</text><rect x="620" y="432" width="500" height="76" rx="14" fill="rgba(255,255,255,0.02)" stroke="#2a3347" stroke-width="1.2"/><text x="634" y="452" font-size="12" font-weight="400" fill="#7c8496" text-anchor="start">프라이빗 서브넷 · DB</text><rect x="910" y="284" width="190" height="40" rx="14" fill="#151b29" stroke="#2a3347" stroke-width="1.2"/><text x="1005" y="309" font-size="13.5" font-weight="650" fill="#eceef4" text-anchor="middle">NAT Gateway</text><rect x="770" y="372" width="200" height="40" rx="14" fill="#151b29" stroke="#2a3347" stroke-width="1.2"/><text x="870" y="397" font-size="13.5" font-weight="650" fill="#eceef4" text-anchor="middle">App (ECS Task)</text><rect x="770" y="460" width="200" height="40" rx="14" fill="#151b29" stroke="#2a3347" stroke-width="1.2"/><text x="870" y="485" font-size="13.5" font-weight="650" fill="#eceef4" text-anchor="middle">RDS Standby</text><rect x="470" y="284" width="260" height="40" rx="14" fill="rgba(99,102,241,0.1)" stroke="#6366f1" stroke-width="1.2"/><text x="600" y="309" font-size="14" font-weight="650" fill="#eceef4" text-anchor="middle">ALB (두 AZ에 걸침)</text><path d="M600 170 L600 280" stroke="#7c8496" stroke-width="1.8" fill="none" marker-end="url(#arwA)"/><path d="M530 326 L330 370" stroke="#7c8496" stroke-width="1.8" fill="none" marker-end="url(#arw)"/><path d="M670 326 L870 370" stroke="#7c8496" stroke-width="1.8" fill="none" marker-end="url(#arw)"/><path d="M330 414 L330 456" stroke="#7c8496" stroke-width="1.8" fill="none" marker-end="url(#arw)"/><path d="M430 480 L770 480" stroke="#7c8496" stroke-dasharray="4 5" stroke-width="1.5"/><text x="600" y="474" font-size="12" font-weight="400" fill="#7c8496" text-anchor="middle">동기 복제</text></g>
</svg>